<svg width="48" height="49" viewBox="0 0 48 49" fill="none" xmlns="http://www.w3.org/2000/svg">
<path opacity="0.25" d="M46.529 24.4806C46.529 36.9243 36.4415 47.0118 23.9978 47.0118C11.5541 47.0118 1.46654 36.9243 1.46654 24.4806C1.46654 12.0369 11.5541 1.94933 23.9978 1.94933C36.4415 1.94933 46.529 12.0369 46.529 24.4806Z" stroke="white" stroke-width="2.09593"/>
<path d="M22.1105 31.704L22.089 25.105H19.282V22.2769H22.089V20.3914C22.089 17.8469 23.653 16.6206 25.906 16.6206C26.9852 16.6206 27.9128 16.7016 28.1831 16.7377V19.397L26.6205 19.3977C25.3952 19.3977 25.158 19.9843 25.158 20.8451V22.2769H28.6388L27.7031 25.105H25.1579V31.704H22.1105Z" fill="white"/>
</svg>
