<svg width="1448" height="721" viewBox="0 0 1448 721" fill="none" xmlns="http://www.w3.org/2000/svg">
<g opacity="0.2">
<path d="M24.4937 -103.128L135.556 -159.189C138.131 -160.488 140.995 -161.106 143.876 -160.985C146.757 -160.864 149.559 -160.006 152.015 -158.495C154.471 -156.984 156.498 -154.869 157.905 -152.351C159.312 -149.834 160.05 -146.999 160.05 -144.115V432.065C160.05 435.045 159.308 437.979 157.89 440.6C156.472 443.221 154.423 445.447 151.928 447.077C149.434 448.708 146.573 449.691 143.603 449.938C140.633 450.185 137.648 449.689 134.919 448.493L25.1313 400.395C17.6595 397.122 11.3034 391.742 6.84019 384.914C2.37697 378.086 1.63771e-06 370.106 0 361.948V-63.3277C-4.7318e-07 -71.5786 2.28962 -79.6676 6.61403 -86.6945C10.9384 -93.7214 17.128 -99.4104 24.4937 -103.128Z" fill="#CC281E"/>
<path d="M338.286 -129.116L227.224 -160.002C224.649 -160.718 221.785 -161.059 218.904 -160.992C216.023 -160.925 213.221 -160.453 210.765 -159.62C208.31 -158.787 206.282 -157.622 204.875 -156.235C203.469 -154.848 202.73 -153.286 202.73 -151.697V165.747C202.73 167.389 203.473 169.005 204.891 170.449C206.309 171.893 208.357 173.12 210.852 174.018C213.346 174.916 216.208 175.458 219.177 175.594C222.147 175.731 225.132 175.457 227.861 174.798L337.649 148.299C345.121 146.495 351.477 143.531 355.94 139.77C360.403 136.008 362.78 131.611 362.78 127.117V-107.188C362.78 -111.734 360.49 -116.19 356.166 -120.062C351.842 -123.933 345.652 -127.067 338.286 -129.116Z" fill="#CC281E"/>
<path d="M1159.49 400.872L1270.56 344.811C1273.13 343.512 1275.99 342.894 1278.88 343.015C1281.76 343.136 1284.56 343.994 1287.01 345.505C1289.47 347.016 1291.5 349.131 1292.91 351.649C1294.31 354.166 1295.05 357.001 1295.05 359.885V936.065C1295.05 939.045 1294.31 941.979 1292.89 944.6C1291.47 947.221 1289.42 949.447 1286.93 951.077C1284.43 952.708 1281.57 953.691 1278.6 953.938C1275.63 954.185 1272.65 953.689 1269.92 952.493L1160.13 904.395C1152.66 901.122 1146.3 895.742 1141.84 888.914C1137.38 882.086 1135 874.106 1135 865.948V440.672C1135 432.421 1137.29 424.332 1141.61 417.305C1145.94 410.279 1152.13 404.59 1159.49 400.872Z" fill="#CC281E"/>
<path d="M1473.29 374.884L1362.22 343.998C1359.65 343.282 1356.79 342.941 1353.9 343.008C1351.02 343.075 1348.22 343.547 1345.77 344.38C1343.31 345.213 1341.28 346.378 1339.88 347.765C1338.47 349.152 1337.73 350.714 1337.73 352.303V669.747C1337.73 671.389 1338.47 673.005 1339.89 674.449C1341.31 675.893 1343.36 677.12 1345.85 678.018C1348.35 678.916 1351.21 679.458 1354.18 679.594C1357.15 679.731 1360.13 679.457 1362.86 678.798L1472.65 652.299C1480.12 650.495 1486.48 647.531 1490.94 643.77C1495.4 640.008 1497.78 635.611 1497.78 631.117V396.812C1497.78 392.266 1495.49 387.81 1491.17 383.938C1486.84 380.067 1480.65 376.933 1473.29 374.884Z" fill="#CC281E"/>
</g>
</svg>
