<svg width="2162" height="904" viewBox="0 0 2162 904" fill="none" xmlns="http://www.w3.org/2000/svg">
<g opacity="0.2">
<path d="M0 67.0602C0 61.9969 3.18795 57.482 7.95947 55.7877L149.076 5.68129C156.872 2.91293 165.058 8.70557 165.04 16.979L163.915 550.287C163.898 558.485 155.826 564.237 148.071 561.577L8.08034 513.551C3.24649 511.892 0 507.346 0 502.236V67.0602Z" fill="#BA1300"/>
<path d="M290.677 19.2183C290.677 10.988 298.796 5.21636 306.569 7.92016L447.721 57.0165C452.53 58.6892 455.753 63.2229 455.753 68.3146V274.996C455.753 280.088 452.53 284.621 447.721 286.294L306.569 335.39C298.796 338.094 290.677 332.322 290.677 324.092V19.2183Z" fill="#BA1300"/>
<path d="M1706 404.06C1706 398.997 1709.19 394.482 1713.96 392.788L1855.08 342.681C1862.87 339.913 1871.06 345.706 1871.04 353.979L1869.92 887.287C1869.9 895.485 1861.83 901.237 1854.07 898.577L1714.08 850.551C1709.25 848.892 1706 844.346 1706 839.236V404.06Z" fill="#BA1300"/>
<path d="M1996.68 356.218C1996.68 347.988 2004.8 342.216 2012.57 344.92L2153.72 394.016C2158.53 395.689 2161.75 400.223 2161.75 405.315V611.996C2161.75 617.088 2158.53 621.621 2153.72 623.294L2012.57 672.39C2004.8 675.094 1996.68 669.322 1996.68 661.092V356.218Z" fill="#BA1300"/>
</g>
</svg>
