<svg width="46" height="36" viewBox="0 0 46 36" fill="none" xmlns="http://www.w3.org/2000/svg">
<path opacity="0.6" d="M18.9474 0V4.28211L22.7368 6.80211V3.78947H41.6842V32.2105H32.2105V36H45.4737V0H18.9474ZM14.2105 5.68421L0 15.1579V36H28.4211V15.1579L14.2105 5.68421ZM26.5263 7.57895V9.34105L29.5768 11.3684H30.3158V7.57895H26.5263ZM34.1053 7.57895V11.3684H37.8947V7.57895H34.1053ZM14.2105 10.4211L24.6316 17.0526V32.2105H18.9474V20.8421H9.47368V32.2105H3.78947V17.0526L14.2105 10.4211ZM34.1053 15.1579V18.9474H37.8947V15.1579H34.1053ZM34.1053 22.7368V26.5263H37.8947V22.7368H34.1053Z" fill="white"/>
</svg>
