<svg width="48" height="49" viewBox="0 0 48 49" fill="none" xmlns="http://www.w3.org/2000/svg">
<path opacity="0.25" d="M46.8866 24.4806C46.8866 36.9243 36.799 47.0118 24.3553 47.0118C11.9117 47.0118 1.82409 36.9243 1.82409 24.4806C1.82409 12.0369 11.9117 1.94933 24.3553 1.94933C36.799 1.94933 46.8866 12.0369 46.8866 24.4806Z" stroke="white" stroke-width="2.09593"/>
<path d="M27.8847 21.7999C28.3361 21.7999 28.7021 21.4339 28.7021 20.9825C28.7021 20.531 28.3361 20.165 27.8847 20.165C27.4332 20.165 27.0673 20.531 27.0673 20.9825C27.0673 21.4339 27.4332 21.7999 27.8847 21.7999Z" fill="white"/>
<path fill-rule="evenodd" clip-rule="evenodd" d="M20.9495 24.4806C20.9495 26.3589 22.477 27.8865 24.3553 27.8865C26.2337 27.8865 27.7612 26.3589 27.7612 24.4806C27.7612 22.6022 26.2337 21.0747 24.3553 21.0747C22.477 21.0747 20.9495 22.6022 20.9495 24.4806ZM22.6524 24.4804C22.6524 23.5412 23.4162 22.7774 24.3554 22.7774C25.2946 22.7774 26.0583 23.5412 26.0583 24.4804C26.0583 25.4196 25.2946 26.1833 24.3554 26.1833C23.4162 26.1833 22.6524 25.4196 22.6524 24.4804Z" fill="white"/>
<path fill-rule="evenodd" clip-rule="evenodd" d="M20.9495 31.292H27.7612C29.5119 31.292 31.1671 29.6367 31.1671 27.8861V21.0743C31.1671 19.3237 29.5119 17.6685 27.7612 17.6685H20.9495C19.1988 17.6685 17.5436 19.3237 17.5436 21.0743V27.8861C17.5436 29.6367 19.1988 31.292 20.9495 31.292ZM19.2465 21.0745C19.2465 20.2784 20.1534 19.3715 20.9495 19.3715H27.7613C28.5574 19.3715 29.4642 20.2784 29.4642 21.0745V27.8863C29.4642 28.6824 28.5574 29.5892 27.7613 29.5892H20.9495C20.138 29.5892 19.2465 28.6977 19.2465 27.8863V21.0745Z" fill="white"/>
</svg>
