<svg width="48" height="49" viewBox="0 0 48 49" fill="none" xmlns="http://www.w3.org/2000/svg">
<path opacity="0.25" d="M46.0405 24.4806C46.0405 36.8519 36.0116 46.8808 23.6403 46.8808C11.2689 46.8808 1.24 36.8519 1.24 24.4806C1.24 12.1093 11.2689 2.08033 23.6403 2.08033C36.0116 2.08033 46.0405 12.1093 46.0405 24.4806Z" stroke="white" stroke-width="2.35792"/>
<path d="M18.5969 21.2053C19.5736 21.2053 20.3654 20.4136 20.3654 19.4369C20.3654 18.4602 19.5736 17.6685 18.5969 17.6685C17.6202 17.6685 16.8285 18.4602 16.8285 19.4369C16.8285 20.4136 17.6202 21.2053 18.5969 21.2053Z" fill="white"/>
<path d="M20.0706 22.3843H17.1232C16.9605 22.3843 16.8285 22.5163 16.8285 22.679V31.5212C16.8285 31.6839 16.9605 31.816 17.1232 31.816H20.0706C20.2333 31.816 20.3654 31.6839 20.3654 31.5212V22.679C20.3654 22.5163 20.2333 22.3843 20.0706 22.3843Z" fill="white"/>
<path d="M28.8521 21.9783C27.5924 21.5468 26.0167 21.9258 25.0718 22.6055C25.0393 22.4788 24.9238 22.3844 24.7865 22.3844H21.8391C21.6764 22.3844 21.5443 22.5165 21.5443 22.6792V31.5214C21.5443 31.6841 21.6764 31.8161 21.8391 31.8161H24.7865C24.9492 31.8161 25.0812 31.6841 25.0812 31.5214V25.1668C25.5575 24.7565 26.1711 24.6256 26.6734 24.839C27.1603 25.0448 27.4391 25.547 27.4391 26.2161V31.5214C27.4391 31.6841 27.5712 31.8161 27.7339 31.8161H30.6813C30.844 31.8161 30.976 31.6841 30.976 31.5214V25.6225C30.9424 23.2003 29.8029 22.3037 28.8521 21.9783Z" fill="white"/>
</svg>
