<svg width="55" height="71" viewBox="0 0 55 71" fill="none" xmlns="http://www.w3.org/2000/svg">
<path d="M13.9964 4.98085L23.5552 0.155905C23.7768 0.0440705 24.0233 -0.00915981 24.2712 0.0012886C24.5192 0.011737 24.7604 0.085514 24.9717 0.215591C25.1831 0.345668 25.3576 0.527706 25.4787 0.744361C25.5998 0.961016 25.6633 1.20507 25.6633 1.45325V51.0435C25.6633 51.3 25.5994 51.5524 25.4774 51.778C25.3553 52.0036 25.179 52.1952 24.9643 52.3356C24.7496 52.4759 24.5033 52.5605 24.2477 52.5818C23.9921 52.603 23.7353 52.5603 23.5003 52.4574L14.0512 48.3177C13.4081 48.036 12.8611 47.573 12.477 46.9853C12.0928 46.3977 11.8882 45.7108 11.8882 45.0087V8.40639C11.8882 7.69625 12.0853 7.00005 12.4575 6.39527C12.8297 5.79048 13.3624 5.30084 13.9964 4.98085Z" fill="#CC281E"/>
<path d="M41.0036 2.74419L31.4448 0.0858976C31.2232 0.0242828 30.9767 -0.0050467 30.7287 0.000709929C30.4808 0.00646656 30.2396 0.047115 30.0283 0.11878C29.8169 0.190446 29.6424 0.290739 29.5213 0.410104C29.4002 0.529469 29.3367 0.66393 29.3367 0.800667V28.1222C29.3367 28.2636 29.4006 28.4026 29.5226 28.5269C29.6447 28.6512 29.821 28.7568 30.0357 28.8341C30.2504 28.9114 30.4966 28.958 30.7522 28.9698C31.0078 28.9815 31.2647 28.9579 31.4996 28.9012L40.9488 26.6205C41.5918 26.4653 42.1389 26.2102 42.523 25.8864C42.9072 25.5626 43.1117 25.1842 43.1117 24.7974V4.63147C43.1117 4.24022 42.9147 3.85666 42.5425 3.52345C42.1703 3.19025 41.6376 2.92049 41.0036 2.74419Z" fill="#CC281E"/>
<path d="M-0.652147 57.8733V57.593H3.1474C4.02981 57.593 4.77207 57.8629 5.37418 58.4028C5.98668 58.9322 6.29293 59.6485 6.29293 60.5517C6.29293 61.4548 5.98668 62.1763 5.37418 62.7162C4.77207 63.2456 4.02981 63.5103 3.1474 63.5103H1.57464V66.905C1.57464 67.0504 1.64731 67.123 1.79264 67.123H2.83596V67.4033H-0.652147V67.123H0.0797327C0.225071 67.123 0.29774 67.0504 0.29774 66.905V58.0602C0.29774 57.9356 0.225071 57.8733 0.0797327 57.8733H-0.652147ZM3.06954 58.029H1.57464V63.0743H3.06954C3.68204 63.0743 4.16477 62.8252 4.51773 62.3269C4.87069 61.8182 5.04717 61.2265 5.04717 60.5517C5.04717 59.8769 4.87069 59.2904 4.51773 58.792C4.16477 58.2834 3.68204 58.029 3.06954 58.029ZM10.8295 63.7751L10.845 63.23V62.685C10.845 61.4704 10.4505 60.8631 9.66157 60.8631C9.31899 60.8631 9.04908 60.9825 8.85183 61.2213C8.66497 61.4497 8.57154 61.7196 8.57154 62.031C8.57154 62.3424 8.61306 62.6124 8.69611 62.8407C8.51963 62.9965 8.27567 63.0743 7.96423 63.0743C7.65279 63.0743 7.49708 62.82 7.49708 62.3113C7.49708 61.8026 7.69432 61.3718 8.08881 61.0188C8.49368 60.6659 9.06465 60.4894 9.80172 60.4894C11.2447 60.4894 11.9662 61.3407 11.9662 63.0432V66.2354C11.9662 66.796 12.1219 67.0763 12.4334 67.0763C12.5787 67.0763 12.7033 67.0088 12.8071 66.8739C12.9213 66.7389 12.9784 66.5832 12.9784 66.4067C12.9784 66.2302 12.9628 66.0641 12.9317 65.9084L13.2275 65.8617C13.2691 66.0174 13.2898 66.1887 13.2898 66.3756C13.2898 66.7493 13.1756 67.0452 12.9472 67.2632C12.7292 67.4812 12.4386 67.5902 12.0752 67.5902C11.7119 67.5902 11.416 67.4448 11.1876 67.1542C10.9592 66.8531 10.845 66.4067 10.845 65.815V65.5347C10.6686 66.2406 10.3883 66.7597 10.0042 67.0919C9.62005 67.4241 9.17365 67.5902 8.66497 67.5902C8.16667 67.5902 7.7618 67.4345 7.45036 67.123C7.1493 66.8012 6.99877 66.3808 6.99877 65.8617C6.99877 65.3323 7.24273 64.8651 7.73065 64.4602C8.21857 64.045 8.91931 63.8374 9.83286 63.8374C10.0301 63.8374 10.3623 63.8633 10.8295 63.9152V63.7751ZM9.02312 66.9985C9.45914 66.9985 9.84843 66.7545 10.191 66.2666C10.544 65.7683 10.7516 65.0727 10.8139 64.1799C10.7101 64.1696 10.5647 64.1644 10.3779 64.1644C9.54738 64.1644 8.95045 64.3408 8.58711 64.6938C8.23415 65.0364 8.05766 65.4361 8.05766 65.8928C8.05766 66.1939 8.1459 66.4534 8.32239 66.6714C8.49887 66.8894 8.73245 66.9985 9.02312 66.9985ZM15.1738 66.905V61.1746C15.1738 61.0292 15.1011 60.9565 14.9558 60.9565H14.2239V60.6763H14.9869C15.6098 60.6763 16.0458 60.6451 16.295 60.5828V66.9362C16.295 67.0607 16.3676 67.123 16.513 67.123H17.2449V67.4033H14.2239V67.123H14.9558C15.1011 67.123 15.1738 67.0504 15.1738 66.905ZM15.2049 58.9633C15.07 58.818 15.0025 58.6415 15.0025 58.4339C15.0025 58.2263 15.07 58.055 15.2049 57.92C15.3503 57.7747 15.5268 57.702 15.7344 57.702C15.942 57.702 16.1133 57.7747 16.2482 57.92C16.3936 58.055 16.4663 58.2263 16.4663 58.4339C16.4663 58.6415 16.3936 58.818 16.2482 58.9633C16.1133 59.0983 15.942 59.1658 15.7344 59.1658C15.5268 59.1658 15.3503 59.0983 15.2049 58.9633ZM19.854 59.0256H20.0876V60.6763H21.6448V60.9565H20.0876V66.2354C20.0876 66.796 20.2433 67.0763 20.5547 67.0763C20.7001 67.0763 20.8247 67.0088 20.9285 66.8739C21.0427 66.7389 21.0998 66.5832 21.0998 66.4067C21.0998 66.2302 21.0842 66.0641 21.053 65.9084L21.3489 65.8617C21.3904 66.0174 21.4112 66.1887 21.4112 66.3756C21.4112 66.7493 21.297 67.0452 21.0686 67.2632C20.8506 67.4812 20.5599 67.5902 20.1966 67.5902C19.8332 67.5902 19.5374 67.4448 19.309 67.1542C19.0806 66.8531 18.9664 66.4067 18.9664 65.815V61.1746C18.9664 61.0292 18.8937 60.9565 18.7484 60.9565H18.0165V60.6763H18.7795C19.1117 60.6763 19.4699 60.126 19.854 59.0256ZM28.768 62.8563V66.9362C28.768 67.0607 28.8406 67.123 28.986 67.123H29.7178V67.4033H26.9149V67.123H27.4288C27.5741 67.123 27.6468 67.0607 27.6468 66.9362V62.6539C27.6468 62.1244 27.5274 61.7351 27.2886 61.486C27.0602 61.2265 26.754 61.0967 26.3699 61.0967C25.83 61.0967 25.3837 61.4185 25.0307 62.0622C24.6777 62.6954 24.5012 63.609 24.5012 64.8028V66.905C24.5012 67.0504 24.5739 67.123 24.7193 67.123H25.2331V67.4033H22.4302V67.123H23.1621C23.3074 67.123 23.3801 67.0607 23.3801 66.9362V57.811C23.3801 57.6657 23.3074 57.593 23.1621 57.593H22.4302V57.3127H23.1932C23.8161 57.3127 24.2521 57.2816 24.5012 57.2193V62.7006C24.8542 61.2265 25.6328 60.4894 26.837 60.4894C27.3769 60.4894 27.8336 60.6866 28.2074 61.0811C28.5811 61.4652 28.768 62.057 28.768 62.8563ZM34.7837 60.4894C35.1886 60.4894 35.5156 60.6607 35.7647 61.0033C36.0243 61.3458 36.154 61.7767 36.154 62.2957C36.154 62.8148 35.9412 63.0743 35.5156 63.0743C35.2664 63.0743 35.064 62.9965 34.9083 62.8407C35.0432 62.5397 35.1107 62.2334 35.1107 61.922C35.1107 61.3718 34.8823 61.0967 34.4255 61.0967C34.0414 61.0967 33.6989 61.4185 33.3978 62.0622C33.1071 62.6954 32.9618 63.6193 32.9618 64.834V66.905C32.9618 67.0504 33.0345 67.123 33.1798 67.123H34.2231V67.4033H30.8907V67.123H31.6226C31.7679 67.123 31.8406 67.0504 31.8406 66.905V61.1746C31.8406 61.0292 31.7679 60.9565 31.6226 60.9565H30.8907V60.6763H31.6537C32.2766 60.6763 32.7126 60.6451 32.9618 60.5828V62.576C33.1279 61.8597 33.3718 61.3355 33.6937 61.0033C34.0155 60.6607 34.3788 60.4894 34.7837 60.4894ZM37.8778 66.905V61.1746C37.8778 61.0292 37.8051 60.9565 37.6598 60.9565H36.9279V60.6763H37.6909C38.3138 60.6763 38.7498 60.6451 38.9989 60.5828V66.9362C38.9989 67.0607 39.0716 67.123 39.217 67.123H39.9488V67.4033H36.9279V67.123H37.6598C37.8051 67.123 37.8778 67.0504 37.8778 66.905ZM37.9089 58.9633C37.774 58.818 37.7065 58.6415 37.7065 58.4339C37.7065 58.2263 37.774 58.055 37.9089 57.92C38.0542 57.7747 38.2307 57.702 38.4384 57.702C38.646 57.702 38.8173 57.7747 38.9522 57.92C39.0976 58.055 39.1702 58.2263 39.1702 58.4339C39.1702 58.6415 39.0976 58.818 38.9522 58.9633C38.8173 59.0983 38.646 59.1658 38.4384 59.1658C38.2307 59.1658 38.0542 59.0983 37.9089 58.9633ZM41.8261 66.905V57.811C41.8261 57.6657 41.7534 57.593 41.6081 57.593H40.8762V57.3127H41.6392C42.2621 57.3127 42.6981 57.2816 42.9473 57.2193V66.9362C42.9473 67.0607 43.0199 67.123 43.1653 67.123H43.8972V67.4033H40.8762V67.123H41.6081C41.7534 67.123 41.8261 67.0504 41.8261 66.905ZM45.0339 60.6763H47.1205V60.9565H46.5444C46.4613 60.9565 46.3679 61.0085 46.2641 61.1123L44.2553 63.4013L46.7312 66.9985C46.7832 67.0815 46.8558 67.123 46.9493 67.123H47.5877V67.4033H46.8558C46.3575 67.4033 45.9838 67.4345 45.7346 67.4968L43.2431 63.8685L45.8281 60.9565H45.0339V60.6763ZM51.8882 63.7751L51.9038 63.23V62.685C51.9038 61.4704 51.5093 60.8631 50.7203 60.8631C50.3778 60.8631 50.1078 60.9825 49.9106 61.2213C49.7237 61.4497 49.6303 61.7196 49.6303 62.031C49.6303 62.3424 49.6718 62.6124 49.7549 62.8407C49.5784 62.9965 49.3344 63.0743 49.023 63.0743C48.7116 63.0743 48.5558 62.82 48.5558 62.3113C48.5558 61.8026 48.7531 61.3718 49.1476 61.0188C49.5524 60.6659 50.1234 60.4894 50.8605 60.4894C52.3035 60.4894 53.025 61.3407 53.025 63.0432V66.2354C53.025 66.796 53.1807 67.0763 53.4921 67.0763C53.6375 67.0763 53.7621 67.0088 53.8659 66.8739C53.9801 66.7389 54.0372 66.5832 54.0372 66.4067C54.0372 66.2302 54.0216 66.0641 53.9904 65.9084L54.2863 65.8617C54.3278 66.0174 54.3486 66.1887 54.3486 66.3756C54.3486 66.7493 54.2344 67.0452 54.006 67.2632C53.788 67.4812 53.4973 67.5902 53.134 67.5902C52.7706 67.5902 52.4748 67.4448 52.2464 67.1542C52.018 66.8531 51.9038 66.4067 51.9038 65.815V65.5347C51.7273 66.2406 51.447 66.7597 51.0629 67.0919C50.6788 67.4241 50.2324 67.5902 49.7237 67.5902C49.2254 67.5902 48.8206 67.4345 48.5091 67.123C48.2081 66.8012 48.0575 66.3808 48.0575 65.8617C48.0575 65.3323 48.3015 64.8651 48.7894 64.4602C49.2773 64.045 49.9781 63.8374 50.8916 63.8374C51.0889 63.8374 51.4211 63.8633 51.8882 63.9152V63.7751ZM50.0819 66.9985C50.5179 66.9985 50.9072 66.7545 51.2498 66.2666C51.6027 65.7683 51.8104 65.0727 51.8727 64.1799C51.7688 64.1696 51.6235 64.1644 51.4366 64.1644C50.6061 64.1644 50.0092 64.3408 49.6459 64.6938C49.2929 65.0364 49.1164 65.4361 49.1164 65.8928C49.1164 66.1939 49.2047 66.4534 49.3812 66.6714C49.5576 66.8894 49.7912 66.9985 50.0819 66.9985Z" fill="#CC281E"/>
</svg>
