<svg width="191" height="237" viewBox="0 0 191 237" fill="none" xmlns="http://www.w3.org/2000/svg">
<path d="M0 28.0305C0 25.914 1.33253 24.0269 3.32697 23.3187L62.312 2.37472C65.5709 1.21758 68.9923 3.63883 68.985 7.09706L68.5147 230.014C68.5075 233.441 65.1335 235.845 61.8922 234.733L3.3775 214.659C1.357 213.966 0 212.065 0 209.929V28.0305Z" fill="black"/>
<path d="M121.5 8.03296C121.5 4.59281 124.893 2.18031 128.143 3.31047L187.143 23.8322C189.153 24.5314 190.5 26.4264 190.5 28.5547V114.945C190.5 117.074 189.153 118.969 187.143 119.668L128.143 140.19C124.893 141.32 121.5 138.907 121.5 135.467V8.03296Z" fill="black"/>
</svg>
