<svg width="167" height="280" viewBox="0 0 167 280" fill="none" xmlns="http://www.w3.org/2000/svg">
<path d="M11.2175 26.5037L62.0814 0.829591C63.2604 0.234505 64.5721 -0.0487405 65.8915 0.00685679C67.211 0.0624541 68.4942 0.455031 69.6189 1.14719C70.7436 1.83934 71.6723 2.80799 72.3165 3.96084C72.9607 5.11369 73.2989 6.41231 73.2989 7.73293V271.609C73.2989 272.974 72.9588 274.317 72.3094 275.517C71.66 276.718 70.7217 277.737 69.5793 278.484C68.4369 279.231 67.1265 279.681 65.7664 279.794C64.4063 279.907 63.0395 279.68 61.7894 279.132L11.5095 257.105C8.0876 255.606 5.17667 253.142 3.13263 250.015C1.08859 246.888 7.50029e-07 243.233 0 239.497V44.7314C-2.16704e-07 40.9527 1.04859 37.2481 3.02905 34.03C5.00952 30.8119 7.84418 28.2064 11.2175 26.5037Z" fill="white"/>
<path d="M154.927 14.6022L104.063 0.457072C102.884 0.129212 101.572 -0.0268541 100.253 0.00377762C98.9331 0.0344094 97.6499 0.250705 96.5252 0.632046C95.4005 1.01339 94.4718 1.54706 93.8276 2.18221C93.1834 2.81737 92.8452 3.53285 92.8452 4.26045V149.642C92.8452 150.394 93.1853 151.134 93.8347 151.795C94.4841 152.457 95.4224 153.018 96.5648 153.43C97.7072 153.841 99.0176 154.089 100.378 154.152C101.738 154.214 103.105 154.089 104.355 153.787L154.635 141.651C158.057 140.825 160.967 139.468 163.011 137.745C165.056 136.022 166.144 134.008 166.144 131.95V24.6446C166.144 22.5627 165.096 20.5217 163.115 18.7487C161.135 16.9757 158.3 15.5403 154.927 14.6022Z" fill="white"/>
</svg>
