<svg width="39" height="64" viewBox="0 0 39 64" fill="none" xmlns="http://www.w3.org/2000/svg">
<path d="M2.56748 5.9908L14.2093 0.187518C14.4791 0.0530066 14.7793 -0.0110171 15.0813 0.00154988C15.3833 0.0141169 15.677 0.102853 15.9345 0.259306C16.1919 0.415758 16.4044 0.634708 16.5519 0.895293C16.6993 1.15588 16.7767 1.44941 16.7767 1.74792V61.3934C16.7767 61.7019 16.6989 62.0055 16.5503 62.2769C16.4016 62.5482 16.1869 62.7787 15.9254 62.9475C15.6639 63.1162 15.364 63.218 15.0527 63.2436C14.7414 63.2692 14.4286 63.2178 14.1424 63.094L2.63431 58.115C1.8511 57.7761 1.18484 57.2192 0.717001 56.5124C0.249158 55.8056 1.71668e-07 54.9794 0 54.135V10.1109C-4.95995e-08 9.2568 0.240002 8.41943 0.693294 7.69202C1.14659 6.9646 1.79539 6.37568 2.56748 5.9908V5.9908Z" fill="#CC281E"/>
<path d="M35.4598 3.30062L23.818 0.103315C23.5481 0.0292065 23.2479 -0.00607001 22.9459 0.000853879C22.6439 0.00777777 22.3502 0.0566684 22.0928 0.142865C21.8354 0.229062 21.6228 0.349691 21.4753 0.493259C21.3279 0.636828 21.2505 0.798553 21.2505 0.963015V33.8245C21.2505 33.9945 21.3283 34.1617 21.477 34.3112C21.6256 34.4607 21.8404 34.5877 22.1018 34.6807C22.3633 34.7737 22.6632 34.8298 22.9745 34.8439C23.2858 34.8579 23.5987 34.8296 23.8848 34.7614L35.3929 32.0182C36.1761 31.8316 36.8424 31.5247 37.3102 31.1353C37.7781 30.7459 38.0272 30.2907 38.0272 29.8255V5.57057C38.0272 5.1 37.7872 4.63866 37.3339 4.23789C36.8806 3.83713 36.2318 3.51266 35.4598 3.30062V3.30062Z" fill="#CC281E"/>
</svg>
