<svg width="858" height="1067" viewBox="0 0 858 1067" fill="none" xmlns="http://www.w3.org/2000/svg">
<g opacity="0.1">
<path d="M0 126.196C0 116.668 5.99919 108.172 14.9784 104.983L280.535 10.6913C295.207 5.48168 310.611 16.3824 310.578 31.9517L308.461 1035.55C308.428 1050.98 293.238 1061.8 278.646 1056.79L15.2058 966.417C6.10934 963.296 0 954.742 0 945.125V126.196Z" fill="#BA1300"/>
<path d="M547.006 36.1651C547.006 20.6772 562.284 9.81584 576.912 14.9039L842.537 107.295C851.586 110.443 857.652 118.974 857.652 128.556V517.496C857.652 527.078 851.586 535.61 842.537 538.757L576.912 631.148C562.284 636.237 547.006 625.375 547.006 609.887V36.1651Z" fill="#BA1300"/>
</g>
</svg>
