<svg width="588" height="1109" viewBox="0 0 588 1109" fill="none" xmlns="http://www.w3.org/2000/svg">
<g opacity="0.1">
<path d="M-25.3487 105.412L176.094 3.73189C180.686 1.41357 185.797 0.310119 190.937 0.526712C196.077 0.743306 201.076 2.27269 205.458 4.96916C209.839 7.66563 213.457 11.4393 215.967 15.9305C218.477 20.4217 219.794 25.4808 219.794 30.6256V1075.68C219.794 1081.01 218.468 1086.24 215.936 1090.93C213.403 1095.61 209.744 1099.58 205.29 1102.49C200.835 1105.41 195.725 1107.16 190.421 1107.6C185.117 1108.04 179.787 1107.16 174.913 1105.02L-24.217 1017.78C-37.6801 1011.89 -49.1329 1002.19 -57.1749 989.889C-65.217 977.586 -69.5 963.206 -69.5 948.508V177.155C-69.5 162.282 -65.3728 147.701 -57.5779 135.035C-49.7829 122.369 -38.6259 112.114 -25.3487 105.412Z" fill="#CC281E" stroke="black"/>
<path d="M543.574 57.8306L342.132 1.8102C337.463 0.511732 332.268 -0.106354 327.042 0.014961C321.817 0.136276 316.735 0.992896 312.28 2.50316C307.826 4.01343 304.148 6.12699 301.597 8.64248C299.045 11.158 297.706 13.9916 297.706 16.8731V592.645C297.706 595.622 299.053 598.554 301.625 601.173C304.197 603.792 307.913 606.017 312.437 607.646C316.961 609.275 322.151 610.258 327.538 610.505C332.924 610.752 338.337 610.255 343.288 609.06L542.418 560.997C555.97 557.726 567.498 552.35 575.594 545.527C583.689 538.704 588 530.729 588 522.577V97.603C588 89.3579 583.847 81.2747 576.004 74.2528C568.16 67.2309 556.934 61.5459 543.574 57.8306Z" fill="#CC281E"/>
</g>
</svg>
