<svg width="2017" height="1166" viewBox="0 0 2017 1166" fill="none" xmlns="http://www.w3.org/2000/svg">
<g style="mix-blend-mode:overlay" opacity="0.4">
<path d="M0 728.562C0 724.141 2.78397 720.198 6.95084 718.718L130.185 674.961C136.993 672.544 144.141 677.602 144.126 684.827L143.144 1150.55C143.129 1157.71 136.08 1162.74 129.308 1160.41L7.0564 1118.47C2.8351 1117.03 0 1113.06 0 1108.59V728.562Z" fill="white"/>
<path d="M253.842 686.783C253.842 679.596 260.932 674.555 267.72 676.916L390.985 719.791C395.185 721.252 398 725.211 398 729.658V910.148C398 914.595 395.185 918.554 390.985 920.015L267.72 962.889C260.932 965.251 253.842 960.21 253.842 953.023V686.783Z" fill="white"/>
<path d="M780 306.562C780 302.141 782.784 298.198 786.951 296.718L910.185 252.961C916.993 250.544 924.141 255.602 924.126 262.827L923.144 728.555C923.129 735.714 916.08 740.737 909.308 738.413L787.056 696.473C782.835 695.025 780 691.055 780 686.592V306.562Z" fill="white"/>
<path d="M1033.84 264.783C1033.84 257.596 1040.93 252.555 1047.72 254.916L1170.99 297.791C1175.19 299.252 1178 303.211 1178 307.658V488.148C1178 492.595 1175.19 496.554 1170.99 498.015L1047.72 540.889C1040.93 543.251 1033.84 538.21 1033.84 531.023V264.783Z" fill="white"/>
<path d="M1619 58.5623C1619 54.1406 1621.78 50.1978 1625.95 48.7183L1749.18 4.96136C1755.99 2.54381 1763.14 7.60239 1763.13 14.8275L1762.14 480.555C1762.13 487.714 1755.08 492.737 1748.31 490.413L1626.06 448.473C1621.84 447.025 1619 443.055 1619 438.592V58.5623Z" fill="white"/>
<path d="M1872.84 16.7829C1872.84 9.59559 1879.93 4.55531 1886.72 6.91648L2009.99 49.7913C2014.19 51.2521 2017 55.2112 2017 59.6577V240.148C2017 244.595 2014.19 248.554 2009.99 250.015L1886.72 292.889C1879.93 295.251 1872.84 290.21 1872.84 283.023V16.7829Z" fill="white"/>
</g>
</svg>
