<svg width="1481" height="820" viewBox="0 0 1481 820" fill="none" xmlns="http://www.w3.org/2000/svg">
<g style="mix-blend-mode:overlay" opacity="0.4">
<path d="M1065.74 -65.5576L1162.55 -114.421C1164.79 -115.554 1167.29 -116.093 1169.8 -115.987C1172.31 -115.881 1174.75 -115.134 1176.9 -113.817C1179.04 -112.499 1180.8 -110.656 1182.03 -108.462C1183.26 -106.268 1183.9 -103.796 1183.9 -101.283V400.932C1183.9 403.529 1183.25 406.086 1182.02 408.37C1180.78 410.655 1178.99 412.595 1176.82 414.016C1174.65 415.438 1172.15 416.295 1169.56 416.51C1166.97 416.725 1164.37 416.292 1161.99 415.25L1066.3 373.327C1059.79 370.474 1054.25 365.785 1050.36 359.833C1046.47 353.882 1044.4 346.926 1044.4 339.815V-30.8662C1044.4 -38.0579 1046.39 -45.1086 1050.16 -51.2334C1053.93 -57.3582 1059.32 -62.3169 1065.74 -65.5576V-65.5576Z" fill="white"/>
<path d="M1339.25 -88.2089L1242.45 -115.13C1240.21 -115.754 1237.71 -116.051 1235.2 -115.993C1232.69 -115.935 1230.24 -115.523 1228.1 -114.797C1225.96 -114.071 1224.2 -113.056 1222.97 -111.847C1221.74 -110.638 1221.1 -109.276 1221.1 -107.891V168.802C1221.1 170.233 1221.75 171.641 1222.98 172.9C1224.22 174.159 1226.01 175.228 1228.18 176.011C1230.35 176.794 1232.85 177.266 1235.44 177.385C1238.02 177.503 1240.63 177.265 1243.01 176.69L1338.7 153.593C1345.21 152.021 1350.75 149.438 1354.64 146.159C1358.53 142.88 1360.6 139.047 1360.6 135.13V-69.0959C1360.6 -73.0581 1358.61 -76.9426 1354.84 -80.317C1351.07 -83.6915 1345.68 -86.4234 1339.25 -88.2089V-88.2089Z" fill="white"/>
</g>
<g style="mix-blend-mode:overlay" opacity="0.4">
<path d="M73.7448 563.442L170.55 514.579C172.794 513.446 175.29 512.907 177.801 513.013C180.313 513.119 182.755 513.866 184.896 515.183C187.036 516.501 188.804 518.344 190.03 520.538C191.256 522.732 191.899 525.204 191.899 527.717V1029.93C191.899 1032.53 191.252 1035.09 190.016 1037.37C188.78 1039.65 186.994 1041.6 184.82 1043.02C182.646 1044.44 180.152 1045.29 177.563 1045.51C174.975 1045.73 172.373 1045.29 169.994 1044.25L74.3005 1002.33C67.7879 999.474 62.2477 994.785 58.3575 988.833C54.4672 982.882 52.3954 975.926 52.3954 968.815V598.134C52.3954 590.942 54.3911 583.891 58.1603 577.767C61.9296 571.642 67.3246 566.683 73.7448 563.442V563.442Z" fill="white"/>
<path d="M347.255 540.791L250.45 513.87C248.206 513.246 245.709 512.949 243.198 513.007C240.687 513.065 238.245 513.477 236.104 514.203C233.964 514.929 232.196 515.944 230.97 517.153C229.744 518.362 229.1 519.724 229.1 521.109V797.802C229.1 799.233 229.748 800.641 230.984 801.9C232.22 803.159 234.005 804.228 236.18 805.011C238.354 805.794 240.848 806.266 243.436 806.385C246.025 806.503 248.626 806.265 251.005 805.69L346.699 782.593C353.212 781.021 358.752 778.438 362.642 775.159C366.533 771.88 368.604 768.047 368.604 764.13V559.904C368.604 555.942 366.609 552.057 362.839 548.683C359.07 545.309 353.675 542.577 347.255 540.791V540.791Z" fill="white"/>
</g>
<g style="mix-blend-mode:overlay" opacity="0.4">
<path d="M612.745 169.442L709.55 120.579C711.794 119.446 714.29 118.907 716.801 119.013C719.313 119.119 721.755 119.866 723.896 121.183C726.036 122.501 727.804 124.344 729.03 126.538C730.256 128.732 730.899 131.204 730.899 133.717V635.932C730.899 638.529 730.252 641.086 729.016 643.37C727.78 645.655 725.994 647.595 723.82 649.016C721.646 650.438 719.152 651.295 716.563 651.51C713.975 651.725 711.373 651.292 708.994 650.25L613.3 608.327C606.788 605.474 601.248 600.785 597.357 594.833C593.467 588.882 591.395 581.926 591.395 574.815V204.134C591.395 196.942 593.391 189.891 597.16 183.767C600.93 177.642 606.325 172.683 612.745 169.442V169.442Z" fill="white"/>
<path d="M886.255 146.791L789.45 119.87C787.206 119.246 784.709 118.949 782.198 119.007C779.687 119.065 777.245 119.477 775.104 120.203C772.964 120.929 771.196 121.944 769.97 123.153C768.744 124.362 768.1 125.724 768.1 127.109V403.802C768.1 405.233 768.748 406.641 769.984 407.9C771.22 409.159 773.005 410.228 775.18 411.011C777.354 411.794 779.848 412.266 782.436 412.385C785.025 412.503 787.626 412.265 790.005 411.69L885.699 388.593C892.212 387.021 897.752 384.438 901.642 381.159C905.533 377.88 907.604 374.047 907.604 370.13V165.904C907.604 161.942 905.609 158.057 901.839 154.683C898.07 151.309 892.675 148.577 886.255 146.791V146.791Z" fill="white"/>
</g>
</svg>
