<svg width="416" height="364" viewBox="0 0 416 364" fill="none" xmlns="http://www.w3.org/2000/svg">
<path opacity="0.05" d="M73.4258 97.1415C86.4215 97.1415 96.3848 102.66 103.316 113.698C110.247 124.753 110.68 136.129 104.615 147.825L77.9743 201.107L129.957 201.107C144.252 201.107 156.485 206.201 166.657 216.39C176.845 226.561 181.94 238.794 181.94 253.09L181.94 331.064C181.94 345.359 176.845 357.592 166.657 367.763C156.485 377.952 144.252 383.046 129.957 383.046L51.9829 383.046C37.6877 383.046 25.4457 377.952 15.2571 367.763C5.08585 357.592 0.000216918 345.359 0.000218168 331.064L0.000228449 213.453C0.00022879 209.554 0.329456 205.543 0.987904 201.419C1.62902 197.312 3.03257 193.526 5.19852 190.061L42.2362 116.635C45.2685 110.57 49.6004 105.805 55.2319 102.34C60.8633 98.8743 66.928 97.1415 73.4258 97.1415ZM307.348 97.1415C320.344 97.1415 330.307 102.66 337.238 113.698C344.169 124.753 344.602 136.129 338.538 147.825L311.896 201.107L363.879 201.107C378.174 201.107 390.408 206.201 400.579 216.39C410.768 226.561 415.862 238.794 415.862 253.09L415.862 331.064C415.862 345.359 410.768 357.592 400.579 367.763C390.408 377.952 378.174 383.046 363.879 383.046L285.905 383.046C271.61 383.046 259.368 377.952 249.179 367.763C239.008 357.592 233.922 345.359 233.922 331.064L233.922 213.453C233.922 209.554 234.243 205.543 234.884 201.419C235.543 197.312 236.955 193.526 239.121 190.061L276.158 116.635C279.191 110.57 283.523 105.805 289.154 102.34C294.785 98.8743 300.85 97.1415 307.348 97.1415Z" fill="black"/>
<path d="M62.0935 0.096312C67.3056 0.0963124 71.3016 2.30971 74.0813 6.73652C76.8611 11.1703 77.0349 15.7326 74.6025 20.4235L63.9177 41.7931L84.7661 41.7931C90.4994 41.7931 95.4058 43.8362 99.4851 47.9225C103.571 52.0019 105.615 56.9082 105.615 62.6415L105.615 93.9141C105.615 99.6474 103.571 104.554 99.4851 108.633C95.4057 112.719 90.4994 114.762 84.7661 114.762L53.4935 114.762C47.7602 114.762 42.8504 112.719 38.7642 108.633C34.6848 104.554 32.6452 99.6474 32.6452 93.914L32.6452 46.7446C32.6452 45.1809 32.7772 43.5721 33.0413 41.9182C33.2984 40.2712 33.8613 38.7527 34.73 37.3628L49.5845 7.91446C50.8006 5.48214 52.538 3.57105 54.7966 2.18116C57.0552 0.791266 59.4875 0.0963117 62.0935 0.096312ZM155.911 0.0963202C161.123 0.0963206 165.119 2.30972 167.899 6.73652C170.679 11.1703 170.853 15.7326 168.42 20.4235L157.735 41.7931L178.584 41.7931C184.317 41.7931 189.223 43.8362 193.303 47.9225C197.389 52.0019 199.432 56.9082 199.432 62.6415L199.432 93.9141C199.432 99.6474 197.389 104.554 193.303 108.633C189.223 112.719 184.317 114.762 178.584 114.762L147.311 114.762C141.578 114.762 136.668 112.719 132.582 108.633C128.503 104.554 126.463 99.6474 126.463 93.9141L126.463 46.7446C126.463 45.181 126.591 43.5722 126.849 41.9182C127.113 40.2712 127.679 38.7527 128.548 37.3628L143.402 7.91446C144.618 5.48215 146.356 3.57106 148.614 2.18117C150.873 0.791274 153.305 0.0963199 155.911 0.0963202Z" fill="#E0382A"/>
</svg>
