<svg width="168" height="115" viewBox="0 0 168 115" fill="none" xmlns="http://www.w3.org/2000/svg">
<path d="M30.0935 0.0963091C35.3056 0.0963096 39.3016 2.3097 42.0813 6.73652C44.8611 11.1703 45.0349 15.7326 42.6025 20.4235L31.9177 41.7931L52.7661 41.7931C58.4994 41.7931 63.4058 43.8362 67.4851 47.9225C71.5714 52.0019 73.6145 56.9082 73.6145 62.6415L73.6145 93.9141C73.6145 99.6474 71.5714 104.554 67.4851 108.633C63.4057 112.719 58.4994 114.762 52.7661 114.762L21.4935 114.762C15.7602 114.762 10.8504 112.719 6.76416 108.633C2.68483 104.554 0.645158 99.6474 0.645159 93.914L0.645163 46.7446C0.645163 45.1809 0.777197 43.5721 1.04128 41.9182C1.29841 40.2711 1.86133 38.7527 2.73002 37.3628L17.5845 7.91445C18.8006 5.48214 20.538 3.57105 22.7966 2.18115C25.0552 0.791263 27.4875 0.0963089 30.0935 0.0963091ZM123.911 0.0963173C129.123 0.0963178 133.119 2.30971 135.899 6.73652C138.679 11.1703 138.853 15.7326 136.42 20.4235L125.735 41.7931L146.584 41.7931C152.317 41.7931 157.223 43.8362 161.303 47.9225C165.389 52.0019 167.432 56.9082 167.432 62.6415L167.432 93.9141C167.432 99.6474 165.389 104.554 161.303 108.633C157.223 112.719 152.317 114.762 146.584 114.762L115.311 114.762C109.578 114.762 104.668 112.719 100.582 108.633C96.5026 104.554 94.4629 99.6474 94.4629 93.9141L94.4629 46.7446C94.4629 45.181 94.5915 43.5722 94.8486 41.9182C95.1127 40.2712 95.6791 38.7527 96.5477 37.3628L111.402 7.91446C112.618 5.48215 114.356 3.57106 116.614 2.18116C118.873 0.791271 121.305 0.0963171 123.911 0.0963173Z" fill="#E0382A"/>
</svg>
