<svg width="215" height="116" viewBox="0 0 315 216" fill="none" xmlns="http://www.w3.org/2000/svg">
<path opacity="0.24" d="M55.4727 0.000112805C65.2909 0.000113663 72.8182 4.16955 78.0545 12.5085C83.2909 20.8605 83.6182 29.4547 79.0363 38.291L58.9091 78.5456L98.1818 78.5456C108.982 78.5456 118.224 82.3943 125.908 90.0918C133.606 97.7762 137.455 107.018 137.455 117.818L137.455 176.727C137.455 187.527 133.606 196.77 125.908 204.454C118.224 212.152 108.982 216 98.1818 216L39.2727 216C28.4727 216 19.2239 212.151 11.5265 204.454C3.84212 196.77 -5.8546e-05 187.527 -5.76018e-05 176.727L-4.98339e-05 87.8729C-4.95764e-05 84.9274 0.24868 81.8969 0.746135 78.7812C1.2305 75.6787 2.29088 72.8183 3.92724 70.2001L31.9091 14.7274C34.2 10.1456 37.4727 6.54558 41.7272 3.9274C45.9818 1.30922 50.5636 0.000112376 55.4727 0.000112805ZM232.2 0.000128255C242.018 0.000129113 249.546 4.16957 254.782 12.5085C260.018 20.8605 260.346 29.4547 255.764 38.2911L235.636 78.5456L274.909 78.5456C285.709 78.5456 294.951 82.3944 302.636 90.0918C310.333 97.7762 314.182 107.018 314.182 117.818L314.182 176.727C314.182 187.528 310.333 196.77 302.636 204.454C294.951 212.152 285.709 216 274.909 216L216 216C205.2 216 195.951 212.152 188.254 204.454C180.569 196.77 176.727 187.527 176.727 176.727L176.727 87.8729C176.727 84.9274 176.969 81.8969 177.454 78.7813C177.951 75.6787 179.018 72.8183 180.655 70.2002L208.636 14.7274C210.927 10.1456 214.2 6.5456 218.455 3.92742C222.709 1.30923 227.291 0.000127826 232.2 0.000128255Z" fill="#E0382A"/>
</svg>
