<svg width="48" height="49" viewBox="0 0 48 49" fill="none" xmlns="http://www.w3.org/2000/svg">
<path opacity="0.25" d="M46.2443 24.4806C46.2443 36.9243 36.1567 47.0118 23.713 47.0118C11.2693 47.0118 1.18175 36.9243 1.18175 24.4806C1.18175 12.0369 11.2693 1.94933 23.713 1.94933C36.1567 1.94933 46.2443 12.0369 46.2443 24.4806Z" stroke="white" stroke-width="2.09593"/>
<path fill-rule="evenodd" clip-rule="evenodd" d="M30.8033 19.0763C31.5213 19.2664 32.0868 19.8233 32.2795 20.5292C32.6372 21.8175 32.6205 24.5036 32.6205 24.5036C32.6205 24.5036 32.618 27.1749 32.2711 28.4624C32.0759 29.1675 31.5079 29.7236 30.7908 29.9129C29.4788 30.2502 24.2301 30.2444 24.2301 30.2444C24.2301 30.2444 18.9957 30.2386 17.6703 29.8849C16.9515 29.6948 16.386 29.1379 16.1933 28.4328C15.8498 27.1577 15.8532 24.4724 15.8532 24.4724C15.8532 24.4724 15.8565 21.8003 16.2025 20.5119C16.3969 19.8069 16.9783 19.2376 17.682 19.0492C18.9948 18.711 24.2427 18.7168 24.2427 18.7168C24.2427 18.7168 29.4914 18.7226 30.8033 19.0763ZM22.568 22.0114L22.5638 26.9476L26.9303 24.4836L22.568 22.0114Z" fill="white"/>
</svg>
